/* XPM */
static char *result[] = {
/* columns rows colors chars-per-pixel */
"30 32 238 2 ",
"   c #2D1C0E",
".  c #2E1D0E",
"X  c #301E0F",
"o  c #0A3A00",
"O  c #0A3B00",
"+  c #0A3C00",
"@  c #0B3C00",
"#  c #0B3E00",
"$  c #0B3F00",
"%  c #193205",
"&  c #183405",
"*  c #123A03",
"=  c #153F04",
"-  c #1D3D07",
";  c #2F230E",
":  c #2D2A0D",
">  c #253E0A",
",  c #2B3A0C",
"<  c #2E3C0D",
"1  c #2C3E0C",
"2  c #2C3F0C",
"3  c #33320F",
"4  c #34380F",
"5  c #332010",
"6  c #342110",
"7  c #362211",
"8  c #372311",
"9  c #352212",
"0  c #382311",
"q  c #382411",
"w  c #392411",
"e  c #382412",
"r  c #392412",
"t  c #392512",
"y  c #3A2512",
"u  c #3B2512",
"i  c #3B2513",
"p  c #3B2612",
"a  c #3C2613",
"s  c #3D2613",
"d  c #3D2713",
"f  c #3E2713",
"g  c #362810",
"h  c #3E2813",
"j  c #3E2814",
"k  c #3F2814",
"l  c #3F2915",
"z  c #3D2917",
"x  c #3B3112",
"c  c #3A3511",
"v  c #3B3712",
"b  c #3A3811",
"n  c #3B3B11",
"m  c #3B3F12",
"M  c #3F3C13",
"N  c #402914",
"B  c #412A15",
"V  c #422A15",
"C  c #432B15",
"Z  c #422B16",
"A  c #432E15",
"S  c #432C17",
"D  c #452C16",
"F  c #462C16",
"G  c #472D17",
"H  c #482E17",
"J  c #492F17",
"K  c #4A2F17",
"L  c #4B2F18",
"P  c #4B3017",
"I  c #4C3017",
"U  c #443815",
"Y  c #443B15",
"T  c #433E14",
"R  c #4D3D17",
"E  c #4B3018",
"W  c #4B3218",
"Q  c #4C3018",
"!  c #4C3118",
"~  c #4D3118",
"^  c #4D3119",
"/  c #4E3118",
"(  c #4D3219",
")  c #4E3219",
"_  c #4F3219",
"`  c #4F3319",
"'  c #4F331A",
"]  c #4C3418",
"[  c #4E3419",
"{  c #4D3619",
"}  c #4D3A18",
"|  c #4D3B18",
" . c #4C3C19",
".. c #503219",
"X. c #503319",
"o. c #513319",
"O. c #50331A",
"+. c #503619",
"@. c #50341A",
"#. c #51341A",
"$. c #52341A",
"%. c #52351A",
"&. c #53351A",
"*. c #53351B",
"=. c #53361B",
"-. c #54351A",
";. c #54351B",
":. c #54361A",
">. c #55361A",
",. c #54361B",
"<. c #55361B",
"1. c #55371B",
"2. c #56371B",
"3. c #55371C",
"4. c #56371C",
"5. c #54371E",
"6. c #58371C",
"7. c #503819",
"8. c #52381A",
"9. c #563B1B",
"0. c #563C1B",
"q. c #56381C",
"w. c #57381C",
"e. c #57381D",
"r. c #56381E",
"t. c #56391E",
"y. c #56391F",
"u. c #57391F",
"i. c #58381B",
"p. c #58381C",
"a. c #59381C",
"s. c #58391C",
"d. c #58391D",
"f. c #59391D",
"g. c #5A391D",
"h. c #5A3A1D",
"j. c #5B3A1D",
"k. c #5C3B1E",
"l. c #4A392B",
"z. c #543921",
"x. c #563A20",
"c. c #583C23",
"v. c #5A3D22",
"b. c #5B3D22",
"n. c #593D24",
"m. c #5A3E25",
"M. c #593E27",
"N. c #5A3F26",
"B. c #5A3F27",
"V. c #0B4000",
"C. c #0B4100",
"Z. c #0B4200",
"A. c #0C4300",
"S. c #0D4300",
"D. c #0B4700",
"F. c #0C4400",
"G. c #0C4600",
"H. c #0C4700",
"J. c #0E4700",
"K. c #0F4601",
"L. c #0A4800",
"P. c #0C4900",
"I. c #0D4A00",
"U. c #0C4B00",
"Y. c #0D4B00",
"T. c #0F4B01",
"R. c #0D4C00",
"E. c #0D4D00",
"W. c #0E4C00",
"Q. c #0D4E00",
"!. c #0D4F00",
"~. c #0F4E00",
"^. c #0F4F01",
"/. c #134702",
"(. c #174204",
"). c #184005",
"_. c #194105",
"`. c #184205",
"'. c #1C4206",
"]. c #1A4405",
"[. c #184704",
"{. c #134902",
"}. c #124A02",
"|. c #144A03",
" X c #154C03",
".X c #0D5000",
"XX c #0E5000",
"oX c #0E5100",
"OX c #0D5200",
"+X c #0D5300",
"@X c #0E5200",
"#X c #0E5300",
"$X c #0D5400",
"%X c #0E5400",
"&X c #0E5500",
"*X c #0E5600",
"=X c #0F5600",
"-X c #0E5700",
";X c #0F5700",
":X c #0E5800",
">X c #0F5800",
",X c #0F5900",
"<X c #0F5A00",
"1X c #0F5B00",
"2X c #0F5C00",
"3X c #0E5D00",
"4X c #105C00",
"5X c #105D00",
"6X c #105E00",
"7X c #105F00",
"8X c #234009",
"9X c #234308",
"0X c #254109",
"qX c #254209",
"wX c #27420A",
"eX c #264709",
"rX c #2A440B",
"tX c #2C420C",
"yX c #3A4111",
"uX c #3D4012",
"iX c #454018",
"pX c #5B4027",
"aX c #5B4129",
"sX c #5B422B",
"dX c #5D432C",
"fX c #63462D",
"gX c #614730",
"hX c #604731",
"jX c #604832",
"kX c #604833",
"lX c #614A36",
"zX c #634D39",
"xX c #644E3A",
"cX c #66503D",
"vX c #65503E",
"bX c #685340",
"nX c #6A5542",
"mX c None",
/* pixels */
"mXmXmXmXmXmXmXmXmXmXmXmXmXmX$ O mXmXmXmXmXmXmXmXmXmXmXmXmXmX",
"mXmXmXmXmXmXmXmXmXmXmXmX$ I.#XR.H.V.mXmXmXmXmXmXmXmXmXmXmXmX",
"mXmXmXmXmXmXmXmXmXmXmXC.!.<X<X>X>X@XI.mXmXmXmXmXmXmXmXmXmXmX",
"mXmXmXmXmXmXmXmXmX+ I.&X&X#X&X&X@X2X,XR.C.mXmXmXmXmXmXmXmXmX",
"mXmXmXmXmXmXmXmXG.XX1X,X*X>X,X,X>X5X2X2X&XC.mXmXmXmXmXmXmXmX",
"mXmXmXmXmXmXA.@X>X,X1X<X>X#X<X*X@X,X<X1X>XXXQ.Z.O mXmXmXmXmX",
"mXmXmXmXo E.%X;X%X.X>X,X>X%X1X,X%X;X;X*X;XoX,XQ.Q.C.mXmXmXmX",
"mXmXmXR.Y.&X;X#X#X;X,X#X;X%X,X1X!.@X=X%X,X,X,X,X,X%XI.mXmXmX",
"mX@ Y.,X>X;X>X,X<X2X;X%X>X>X<X<X*X.X;X,X2X<X@X&X>X,X*XF.# mX",
"# P.%X*X@XoX;X,X#X@X&X;X<X#X%X&X,X2X1X1X@X,X2X<X&X%X@X*X@X$ ",
"% K.I.-X4X;X@X>X#X>X2X5X5X%X%X#X2X1X4X7X;X%X6X%X;X2X>XW.T.& ",
"; c qX/.&X:X*X,X;X>X;X;X#X*X;X<X6X1X%X%X>X&X@XoX-X$X].< tXg ",
"7 O.] b _. X&X,XoX>X*X#X#X,X&X<X;X%XoX;X2X<X>X:X|.).n [ A r ",
"mXk ;.} T 0XZ.~.*X.X&X>X@X1X#X.X,X;X@X,X4X,X^.J.9XiX .<.V mX",
"mX0 ) <.<.v wX, S.E.%X>XoX<X@X#X;X;X*X;XOXL.> x R cXhX>.C mX",
"mXj %.) *.*.9.W 2 K.D.&X>X,X#X>X#X>X;XH.- eXuX;.6.b.t.p.G mX",
"mXN ,.~ lXhXa.<.8.m 4 '.-X2X@XoX:X3X[.8XM r.y.*.q.o.z.bXS mX",
"mXN k.2.B.n.&.-.j.;.<.U (.}.U.+X{.`.rX| 0.gXvXK $.#.5.sXl mX",
"mXa #.f.:.i.pXjX&.E ;.7.yXb = * 1 +.{ _ <.r.x.&.,.,.,.P 6 mX",
"mXmXk w.,...M.kX%.E =.<.X.! 3 : Y <.#._ ,.,.=.E ^ ~ 1.J mXmX",
"mXmXC =.,.#.&.-.,.@.,.fXu.O.i 5 L #.*.,.w.<.,.*.%.#.<.J mXmX",
"mXmXG <.,.) %.` O.,.3.bXm.&.s 0 #.D O.,.j.4.,.j.4.,.<.J mXmX",
"mXmXD ,.,.) %.X.@.,.,.,.,.=.r 8 *.) %.-.,.,.,.,.1.~ #.O.mXmX",
"mXmXf $.4.4.,.,.,.1.w.,.,.,.V r *.,.c.aXX.*.#.,.k.%.,.Q X mX",
"mXmXk #.f.p.,.p.e.w.g.&.~ ,.Q k *.-.dXzXP %.^ X.1.,.%.V mXmX",
"mXmXmXu F #.,.d.nXN.:.*.) *.y r *.j.2.,.%.%.,.%.@.G p mXmXmX",
"mXmXmXmXmXq H ' B.t.,.w.1.=.t 8 *.4.1.,.H H ` h 7 mXmXmXmXmX",
"mXmXmXmXmXmXmXa / ,.,.h.s.p.r 6 ~ &.~ ,.*.) d mXmXmXmXmXmXmX",
"mXmXmXmXmXmXmXmXr B H ( w.v.z w _ ,.) ` V r mXmXmXmXmXmXmXmX",
"mXmXmXmXmXmXmXmXmXmX5 V I xXl./ 1.^ D 7 mXmXmXmXmXmXmXmXmXmX",
"mXmXmXmXmXmXmXmXmXmXmXmX8 Z 9 8 B e mXmXmXmXmXmXmXmXmXmXmXmX",
"mXmXmXmXmXmXmXmXmXmXmXmXmX  . .   mXmXmXmXmXmXmXmXmXmXmXmXmX"
};
