/* XPM */
static char *result[] = {
/* columns rows colors chars-per-pixel */
"30 30 129 2 ",
"   c #BB1A20",
".  c #C0191F",
"X  c #C31B21",
"o  c #CE1920",
"O  c #C81C22",
"+  c #C91C22",
"@  c #CD1C23",
"#  c #CD1D23",
"$  c #CE1C23",
"%  c #CF1D23",
"&  c #CF1D24",
"*  c #D01D23",
"=  c #D01D24",
"-  c #D11D24",
";  c #D31D24",
":  c #D21E24",
">  c #D41D24",
",  c #D41E24",
"<  c #D51E24",
"1  c #D71E24",
"2  c #D71E25",
"3  c #DD1B22",
"4  c #D81C23",
"5  c #DC1C23",
"6  c #DD1C23",
"7  c #D81C24",
"8  c #DA1D24",
"9  c #DB1D25",
"0  c #D91E24",
"q  c #D81E25",
"w  c #D91E25",
"e  c #DA1E25",
"r  c #DB1E25",
"t  c #DB1F25",
"y  c #DD1D24",
"u  c #DD1D25",
"i  c #DE1D24",
"p  c #DF1D24",
"a  c #DE1D25",
"s  c #DD1E24",
"d  c #DC1E25",
"f  c #DD1E25",
"g  c #DC1F25",
"h  c #DD1F25",
"j  c #DE1E25",
"k  c #DE1F25",
"l  c #DD1E26",
"z  c #DD1F26",
"x  c #DE1F26",
"c  c #DB2327",
"v  c #DD2126",
"b  c #DE2026",
"n  c #DE2327",
"m  c #D92427",
"M  c #DD2427",
"N  c #DE2427",
"B  c #DE2527",
"V  c #DE232A",
"C  c #DE272D",
"Z  c #DD2A29",
"A  c #DE2D2A",
"S  c #DE312B",
"D  c #DE3C2F",
"F  c #C62B31",
"G  c #DE2A31",
"H  c #DE3339",
"J  c #DE363D",
"K  c #DE393F",
"L  c #DE4130",
"P  c #DE4230",
"I  c #DE4330",
"U  c #DA4631",
"Y  c #DC4430",
"T  c #DE4531",
"R  c #DE6F3E",
"E  c #DE4449",
"W  c #CE4B50",
"Q  c #DE4D52",
"!  c #DD7941",
"~  c #DE7841",
"^  c #DE7941",
"/  c #DF7941",
"(  c #DD7C41",
")  c #DE6165",
"_  c #DE6E72",
"`  c #DE7377",
"'  c #C2803F",
"]  c #C68341",
"[  c #C78441",
"{  c #C88541",
"}  c #C98542",
"|  c #CA8642",
" . c #CB8743",
".. c #CD8843",
"X. c #CF8944",
"o. c #D08A44",
"O. c #D18A44",
"+. c #D28B44",
"@. c #D78945",
"#. c #D28C45",
"$. c #D38C45",
"%. c #D48D45",
"&. c #D58D46",
"*. c #D78C46",
"=. c #D58E46",
"-. c #D78E46",
";. c #D78F46",
":. c #D78F47",
">. c #DF8946",
",. c #D88F47",
"<. c #DB9148",
"1. c #DD9148",
"2. c #DC9248",
"3. c #DF9248",
"4. c #DE9349",
"5. c #DF9349",
"6. c #DE9449",
"7. c #DF9449",
"8. c #DA7C80",
"9. c #DE7F83",
"0. c #DE8286",
"q. c #DD878A",
"w. c #DE8B8E",
"e. c #DE8D90",
"r. c #DEB7B8",
"t. c #DFCACB",
"y. c #DFDFDF",
"u. c #DFE7E7",
"i. c None",
/* pixels */
"i.i.i.i.i.i.i.i.i.i.i.i.i.i.i.i.i.i.i.i.i.i.i.i.i.i.i.i.i.i.",
"i.i.i.i.i.i.i.i.i.i.i.i.i.i.i.i.i.i.i.i.i.i.i.i.i.i.i.i.i.i.",
"i.i.i.i.i.i.i.i.i.i.i.i.i.i.i.i.i.i.i.i.i.i.i.i.i.i.i.i.i.i.",
"i.i.i.i.i.i.i.i.i.i.i.i.i.i.i.i.i.i.i.i.i.i.i.=.=.=.i.i.i.i.",
"i.i.i.i.i.i.i.i.i.i.i.i.i.i.i.i.i.i.i.i.i.i.o.7.7.7.#.i.i.i.",
"i.i.i.i.i.i.i.i.i.i.i.i.i.i.i.i.i.i.i.$.$.+.,.7.6.7.#.i.i.i.",
"i.i.i.i.i.i.i.i.i.i.i.i.i.i.i.i.i.i.-.7.7.7.7.7.7.7.#.i.i.i.",
"i.i.i.i.i.i.i.i.i.i.i.i.i.i.i.i.i.i.' [ :.7.O.] [ [ i.i.i.i.",
"i.i.i.i.i.i.i.i.i.i.i.i.i.i.<.7.7.2.i.i.$.5.i.i.i.i.i.i.i.i.",
"i.i.i.i.i.i.i.i.i.i.i.i.i.i.} ....| i.i.%.4.i.i.i.i.i.i.i.i.",
"i.i.i.i.i.i.i.i.i.i.i.i.2.,.i.i.i.i.i.i.&.7.i.i.i.i.i.i.i.i.",
"i.i.i.i.i.i.i.i.i.i.i.i.X. .i.i.i.i.i.i.{ O.i.i.i.i.i.i.i.i.",
"i.i.i.i.i.# t t 9 Y 1.#.i.i.i.i.i.i.&.2.i.i.i.i.i.i.i.i.i.i.",
"i.i.i.i.i.* x k a T 5.@.i.i.i.i.i.i.;.4.i.i.i.i.i.i.i.i.i.i.",
"i.i.i.& r g k k u T 7.! c > i.i.i.i.;.4.i.i.i.i.i.i.i.i.i.i.",
"i.i.i.: x x k k u L >.R n 2 i.i.i.i.*.4.i.i.i.i.i.i.i.i.i.i.",
"i.i.i.: x j j k k B S A b 2 i.i.; m ( 7.U 7 i.i.i.i.i.i.i.i.",
"i.i.i.: x V C V k j j f e ; i.i.q N / 7.P u i.i.i.i.i.i.i.i.",
"i.i.i.: i _ r.` s k x , i.i.- 2 d M ^ 7.I u q 1 i.i.i.i.i.i.",
"i.i.i.= 5 q.u.e.y k x < i.i.e x z M ~ 3.P u x x $ i.i.i.i.i.",
"i.i.i.i.i.W ) E j k x < i.i.w x z v D T Z f z z @ i.i.i.i.i.",
"i.i.i.i.i.o 3 y h h h , i.i.w x f f u u l z z z @ i.i.i.i.i.",
"i.i.i.i.i.i.          i.i.i.0 G 9.w.K y z z z z @ i.i.i.i.i.",
"i.i.i.i.i.i.i.i.i.i.i.i.i.i.8 H t.y.Q 6 x x x z @ i.i.i.i.i.",
"i.i.i.i.i.i.i.i.i.i.i.i.i.i.. F 8.0.J i x x % X i.i.i.i.i.i.",
"i.i.i.i.i.i.i.i.i.i.i.i.i.i.i.i.4 p j x x x i.i.i.i.i.i.i.i.",
"i.i.i.i.i.i.i.i.i.i.i.i.i.i.i.i.X + + + + O i.i.i.i.i.i.i.i.",
"i.i.i.i.i.i.i.i.i.i.i.i.i.i.i.i.i.i.i.i.i.i.i.i.i.i.i.i.i.i.",
"i.i.i.i.i.i.i.i.i.i.i.i.i.i.i.i.i.i.i.i.i.i.i.i.i.i.i.i.i.i.",
"i.i.i.i.i.i.i.i.i.i.i.i.i.i.i.i.i.i.i.i.i.i.i.i.i.i.i.i.i.i."
};
