/* XPM */
static char *result[] = {
/* columns rows colors chars-per-pixel */
"30 22 132 2 ",
"   c #785344",
".  c #785345",
"X  c #785346",
"o  c #785447",
"O  c #795447",
"+  c #795548",
"@  c #795649",
"#  c #7A5649",
"$  c #7A564A",
"%  c #7A574A",
"&  c #7B574A",
"*  c #7B574B",
"=  c #7B584B",
"-  c #7C584C",
";  c #7C594C",
":  c #7D594C",
">  c #7C594D",
",  c #7D594D",
"<  c #7D5A4D",
"1  c #7D5A4E",
"2  c #7D5B4E",
"3  c #7E5B4E",
"4  c #7E5C4F",
"5  c #7E5C50",
"6  c #7F5C50",
"7  c #7F5D50",
"8  c #7F5F55",
"9  c #805E52",
"0  c #805F52",
"q  c #815F53",
"w  c #805F55",
"e  c #805F56",
"r  c #816054",
"t  c #826054",
"y  c #826155",
"u  c #806056",
"i  c #806057",
"p  c #836256",
"a  c #846357",
"s  c #816158",
"d  c #82625A",
"f  c #846358",
"g  c #846458",
"h  c #856458",
"j  c #856559",
"k  c #86665A",
"l  c #87665B",
"z  c #83645C",
"x  c #88685C",
"c  c #88695D",
"v  c #896A5E",
"b  c #896A5F",
"n  c #8A6A5F",
"m  c #8A6B5F",
"M  c #836763",
"N  c #846866",
"B  c #8A6B60",
"V  c #8B6B60",
"C  c #8B6C60",
"Z  c #8B6C61",
"A  c #8C6D62",
"S  c #8C6E62",
"D  c #8D6E63",
"F  c #8D6F64",
"G  c #8E6F64",
"H  c #8E7065",
"J  c #917368",
"K  c #917369",
"L  c #917469",
"P  c #92756A",
"I  c #92756B",
"U  c #93756B",
"Y  c #93766B",
"T  c #93766C",
"R  c #93776C",
"E  c #94776D",
"W  c #94786D",
"Q  c #94786E",
"!  c #95786E",
"~  c #96796F",
"^  c #967A6F",
"/  c #967A70",
"(  c #977B71",
")  c #987C73",
"_  c #997D74",
"`  c #ECBB2E",
"'  c #ECBC2E",
"]  c #E8BA37",
"[  c #E8BA38",
"{  c #FFC004",
"}  c #FFC005",
"|  c #FEC007",
" . c #9B8177",
".. c #9C8178",
"X. c #9C8278",
"o. c #9C8279",
"O. c #9D837A",
"+. c #9F867D",
"@. c #A0867D",
"#. c #A0877E",
"$. c #A1887F",
"%. c #DFB84C",
"&. c #DEB84D",
"*. c #A18980",
"=. c #A28980",
"-. c #A28A81",
";. c #A38A81",
":. c #9A9DC6",
">. c #9A9EC8",
",. c #9FA8DB",
"<. c #A6ABCE",
"1. c #B8B6CE",
"2. c #B9B7CE",
"3. c #A2AAD5",
"4. c #A2AAD6",
"5. c #A0AADB",
"6. c #A1AADB",
"7. c #B9B8D0",
"8. c #BAB8D0",
"9. c #BCBCD6",
"0. c #BDBDD7",
"q. c #B6BADB",
"w. c #B7BBDC",
"e. c #B6BDE3",
"r. c #BBC1E5",
"t. c #BCC2E6",
"y. c #C5CAE9",
"u. c #C6CBE9",
"i. c #C6CBEA",
"p. c #C6CBEB",
"a. c #C6CCEB",
"s. c None",
/* pixels */
"s.s.s.s.s.s.s.s.s.s.s.s.o o + + o o s.s.s.s.s.s.s.s.s.s.s.s.",
"s.| | | s.s.s.s.s.s.O & a j + + j g * O s.s.s.s.s.s.| | | s.",
"s.} } { s.s.s.s.o > 1 p +.! # + E @.a 2 < O s.s.s.s.{ } } s.",
"s.[ ' %.s.s.s.O t ) m a $.Q @ + E $.f b _ y O s.s.s.&.` ] s.",
",.4.<.6.>.. & $ F -.V a $.Q @ + E $.a n -.H & =   :.5.<.3.,.",
"s.r.t.w.N : J t D =.B a $.Q @ + E $.a n =.F r I 3 M q.t.r.e.",
"s.u.a.8.u K #.y D =.B a $.Q @ + E $.a n =.F t #.U w 2.a.u.s.",
"s.y.p.7.s ^ #.y D =.B a $.Q @ + E $.a n =.F t @./ i 1.p.y.s.",
"s.y.p.7.s ~ #.y D =.B a $.Q @ + E $.a n =.F t @./ i 1.p.y.s.",
"s.y.p.7.s ^ #.y D -.V a $.! @ + E $.f m -.G t #./ i 1.p.y.s.",
"s.y.p.7.s P ..q B O.c y X.L @ + J o.p x O.Z q  .Y u 1.p.y.s.",
"s.y.p.7.i , 4 % - 6 = % 4 < + + < 5 & = 6 ; % 4 < 8 1.p.y.s.",
"s.y.p.7.i A T 7 k Q h 9 R Z + + C E 0 a W l 6 T S e 1.p.y.s.",
"s.y.p.7.s / $.y F ;.C a *.! @ + W =.g m ;.H t #.( i 1.p.y.s.",
"s.y.p.7.s ~ #.y D =.B a $.Q @ + E $.a n =.F t @./ i 1.p.y.s.",
"s.y.p.7.s ~ #.y D =.B a $.Q @ + E $.a n =.F t @./ i 1.p.y.s.",
"s.y.p.7.s ~ #.y D =.B a $.Q @ + E $.a n =.F t @./ i 1.p.y.s.",
"s.y.p.7.s ~ #.y D =.B a $.Q @ + E $.a n =.F t @./ i 1.p.y.s.",
"s.y.p.7.s ^ #.y D -.V a $.! @ + E $.f m -.G t #./ i 1.p.y.s.",
"s.y.p.7.i h v < q m 9 2 n f + + a n 3 9 m r < v h w 1.p.y.s.",
"s.y.i.0.z X o + O o O + o o + + o o + O o o + o X d 9.i.y.s.",
"s.y.y.y.s.s.s.s.s.s.s.s.s.s.s.s.s.s.s.s.s.s.s.s.s.s.y.y.y.s."
};
