/* XPM */
static char *result[] = {
/* columns rows colors chars-per-pixel */
"30 23 81 1 ",
"  c #785446",
". c #785447",
"X c #795447",
"o c #795547",
"O c #795548",
"+ c #7A5548",
"@ c #795649",
"# c #7A5649",
"$ c #7A564A",
"% c #7A574A",
"& c #7B574A",
"* c #7B574B",
"= c #7B584B",
"- c #7C584B",
"; c #7C584C",
": c #7C594C",
"> c #7C594D",
", c #7D5A4D",
"< c #7D5A4E",
"1 c #7D5B4E",
"2 c #7E5B4E",
"3 c #7E5B4F",
"4 c #7E5C4F",
"5 c #7E5C50",
"6 c #7F5C50",
"7 c #7F5E55",
"8 c #7F5F55",
"9 c #805E51",
"0 c #805E52",
"q c #805F56",
"w c #816053",
"e c #826054",
"r c #826155",
"t c #836255",
"y c #806056",
"u c #806057",
"i c #816057",
"p c #816157",
"a c #846357",
"s c #806058",
"d c #816158",
"f c #816159",
"g c #856458",
"h c #856559",
"j c #86665A",
"k c #87675C",
"l c #88695D",
"z c #8B6C61",
"x c #8D6E63",
"c c #8D6F64",
"v c #8E6F64",
"b c #8E7064",
"n c #8E7065",
"m c #8E7066",
"M c #8F7066",
"N c #8F7166",
"B c #FFC102",
"V c #FFC003",
"C c #FEC007",
"Z c #D6B65F",
"A c #CDB373",
"S c #CCB374",
"D c #8B7C8B",
"F c #8C7D8E",
"G c #BFB094",
"H c #BEB095",
"J c #B8B6CE",
"K c #A2ABDB",
"L c #A4ADDD",
"P c #A4ADDE",
"I c #B9B8D0",
"U c #B9B9D4",
"Y c #B9BAD6",
"T c #BDBDD8",
"R c #BDBED9",
"E c #C2C7E8",
"W c #C2C8E9",
"Q c #C5CAE9",
"! c #C5CBEA",
"~ c #C6CBEB",
"^ c None",
/* pixels */
"^^^^^^^^^XO^^^^^^^^OX^^^^^^^^^",
"^^C^^^^^@2#^^^^^^^^#2#^^^^^C^^",
"^CCC^^^O=c=^^^^^^^^*c;o^^^CCC^",
"^VVB^^@w1M=^^^^^^^^*m2e#^^BVV^",
"^SZG^X*n5n=^^^^^^^^*n5n=X^HZA^",
"KPPPFO-m4n=^^^^^^^^*n4m:+DLPPK",
"^EWYfh3n4n=^^^^^^^^*n4n3jsUWE^",
"^Q~Idn6n4n=^^^^^^^^*n4n5niJ~Q^",
"^Q~Idn5n4n=^^^^^^^^*n4n4npJ~Q^",
"^Q~Idb5n4n=^^^^^^^^&v4n4npJ~Q^",
"^Q~Idn5c>6@^^^^^^^^O4:x4npJ~Q^",
"^Q~Idz>2$0#^^^^^^^^#9#,:ziJ~Q^",
"^Q~Iu=#r<n=^^^^^^^^*n<r#&8J~Q^",
"^Q~Iug<M5n=^^^^^^^^*n5M<aqJ~Q^",
"^Q~Idn6n4n=^^^^^^^^*n4n5npJ~Q^",
"^Q~Idb5n4n=^^^^^^^^*n4n4npJ~Q^",
"^Q~Idb5n5N=^^^^^^^^*N5n4npJ~Q^",
"^Q~Idn6N3k%^^^^^^^^$l3N5npJ~Q^",
"^Q~Idn3h%OO^^^^^^^^O#%h2npJ~Q^",
"^Q~Iie%OO^^^^^^^^^^^^OO%tyJ~Q^",
"^Q~Iq O^^^^^^^^^^^^^^^^^.7J~Q^",
"^Q!R^^^^^^^^^^^^^^^^^^^^^^T!Q^",
"^QQQ^^^^^^^^^^^^^^^^^^^^^^QQQ^"
};
