/* XPM */
static char *result[] = {
/* columns rows colors chars-per-pixel */
"30 33 109 2 ",
"   c #010100",
".  c #0D0D00",
"X  c #171702",
"o  c #1C1C01",
"O  c #15150D",
"+  c #1C1C0C",
"@  c #191910",
"#  c #1D1D1C",
"$  c #222201",
"%  c #292900",
"&  c #2E2E0F",
"*  c #353501",
"=  c #3D3D00",
"-  c #3A3A0D",
";  c #2F2F16",
":  c #20201F",
">  c #3F3F1D",
",  c #232324",
"<  c #2A2A21",
"1  c #2A2A28",
"2  c #2C2C33",
"3  c #363637",
"4  c #3C3C3F",
"5  c #444400",
"6  c #545400",
"7  c #5D5D0A",
"8  c #444410",
"9  c #454518",
"0  c #555513",
"q  c #5E5E17",
"w  c #626200",
"e  c #6D6D00",
"r  c #707000",
"t  c #7F7F00",
"y  c #73730E",
"u  c #606014",
"i  c #63631A",
"p  c #6E6E1E",
"a  c #4A4A23",
"s  c #525234",
"d  c #65652F",
"f  c #686829",
"g  c #757524",
"h  c #606038",
"j  c #6B6B3C",
"k  c #747434",
"l  c #787838",
"z  c #3A3A41",
"x  c #444447",
"c  c #585844",
"v  c #515157",
"b  c #55555B",
"n  c #606046",
"m  c #686843",
"M  c #747442",
"N  c #6A6A54",
"B  c #616166",
"V  c #656569",
"C  c #797967",
"Z  c #77777B",
"A  c #79797C",
"S  c #848400",
"D  c #898900",
"F  c #808008",
"G  c #969602",
"H  c #9A9A00",
"J  c #A3A300",
"K  c #ACAC00",
"L  c #A6A609",
"P  c #B4B401",
"I  c #BDBD00",
"U  c #C2C200",
"Y  c #CBCB01",
"T  c #D6D601",
"R  c #DDDD00",
"E  c #E3E300",
"W  c #EBEB00",
"Q  c #F4F400",
"!  c #FFFF00",
"~  c #87877C",
"^  c #8A8A8B",
"/  c #959587",
"(  c #989886",
")  c #969689",
"_  c #8E8E91",
"`  c #949494",
"'  c #9C9C94",
"]  c #9C9C9B",
"[  c #A5A59C",
"{  c #9E9EA0",
"}  c #A3A3A4",
"|  c #ADADA7",
" . c #ABABAC",
".. c #B3B3AB",
"X. c #B5B5B5",
"o. c #B9B9B2",
"O. c #BCBCBD",
"+. c #C3C3BF",
"@. c #C2C2C3",
"#. c #CECECD",
"$. c #D5D5D5",
"%. c #DBDBDB",
"&. c #DFDFE0",
"*. c #E4E4E5",
"=. c #EBEBEB",
"-. c #EFEFF0",
";. c #F3F3F3",
":. c #FAFAFA",
">. c None",
/* pixels */
">.>.>.>.>.>.>.>.>.>.>.>.>.>.>.>.>.>.>.>.>.>.>.>.>.>.>.>.>.>.",
">.>.>.>.>.>.>.>.>.>.>.>.>.%.} } } }  .=.>.>.>.>.>.>.>.>.>.>.",
">.>.>.>.>.>.>.>.>.=.%.%.*.[ o o o o ; @.&.$.%.-.>.>.>.>.>.>.",
">.>.>.>.>.>.>.;.:.X., , : q R R R R Y > , , 3 $.:.-.>.>.>.>.",
">.>.>.>.>.>.=.Z B M G G G P ! ! ! ! ! J G H G N B ` ;.>.>.>.",
">.>.>.>.>.*.[ 0 5 S ! ! ! ! ! U P P I Q ! ! Q w 5 d X.=.>.>.",
">.>.>.>.-.] * R ! ! ! ! ! ! W = .   o R ! ! ! ! ! I ; @.=.>.",
">.>.>.;.Z i T ! ! ! ! ! ! ! E %     X T ! ! ! ! ! Q Y a } ;.",
">.>.>.:.b 6 ! ! ! ! ! ! ! ! E %     X T ! ! ! ! K r e . ^ ;.",
">.>.=.@.m t ! ! ! ! ! ! ! ! W w = = 6 R ! W U U g z z 4  .-.",
">.>.$.1 J ! ! ! ! ! ! ! ! ! ! Q Q Q Q Q Q P + O ` ;.=.=.=.>.",
">.>.$., J ! ! ! ! ! ! ! ! ! ! ! ! ! Q 6 * h O.@.*.>.>.>.>.>.",
">.>.%.: J ! ! ! ! ! ! ! ! ! ! ! P S t C Z } ;.>.>.>.>.>.>.>.",
">.*.o.9 P ! ! ! ! ! ! ! ! W Y Y p 2 x &.:.;.>.>.>.>.>.>.>.>.",
">.} & T ! ! ! ! ! ! ! Q ! K + X ` -.*.=.>.>.>.>.>.>.>.>.>.>.",
">.{ $ E ! ! ! ! ! ! W w 5 j X.X.%.>.>.>.>.>.>.>.>.>.>.>.>.>.",
">.{ o E ! ! ! ! ! ! E X   v :.=.>.>.>.>.>.>.>.>.>.>.>.>.>.>.",
">.] $ E ! ! ! ! ! ! W 5 $ n $.$.=.>.>.>.>.>.>.>.>.>.>.>.>.>.",
">.} $ R ! ! ! ! ! ! ! W W L # @ } ;.;.=.>.>.>.>.>.>.>.>.>.>.",
">.%.[ u U ! ! ! ! ! ! ! ! E K K k v B *.;.>.>.>.>.>.>.>.>.>.",
">.>.%.: J ! ! ! ! ! ! ! ! ! ! ! H 6 7 ) } O.-.>.>.>.>.>.>.>.",
">.>.$.: J ! ! ! ! ! ! ! ! ! ! ! ! ! E 5 X c %.%.=.>.>.>.>.>.",
">.>.$.: J ! ! ! ! ! ! ! ! ! ! ! ! ! ! E E L , , } :.-.;.-.>.",
">.>.=.} k H ! ! ! ! ! ! ! ! ! ! ! ! ! ! ! E H H l B B V O.=.",
">.>.>.:.b 6 ! ! ! ! ! ! ! ! ! ! ! ! ! ! ! ! ! ! H 5 5   ^ ;.",
">.>.>.;.V 7 W ! ! ! ! ! ! ! ! ! ! ! ! ! ! ! ! ! ! Q R - ] ;.",
">.>.>.=.*.) 5 E ! ! ! ! ! ! ! ! ! ! ! ! ! ! ! ! ! U - ..*.>.",
">.>.>.>.>.$.~ y e J ! ! ! ! ! ! ! ! ! ! ! ! ! S e g ` *.>.>.",
">.>.>.>.>.>.*.b z f I U I T ! ! ! ! ! U U U P s 4 Z :.>.>.>.",
">.>.>.>.>.>.=.=.;. .@ O O w W Q Q Q R - O O 1 #.=.=.>.>.>.>.",
">.>.>.>.>.>.>.>.>.*.@.@.@.) * * * * 8 | @.@.@.=.>.>.>.>.>.>.",
">.>.>.>.>.>.>.>.>.>.>.>.>.%._ _ ` ^ ] =.>.>.>.>.>.>.>.>.>.>.",
">.>.>.>.>.>.>.>.>.>.>.>.>.>.;.;.;.;.;.>.>.>.>.>.>.>.>.>.>.>."
};
