/* XPM */
static char *result[] = {
/* columns rows colors chars-per-pixel */
"30 28 108 2 ",
"   c #010100",
".  c #1D1D00",
"X  c #1F1F0C",
"o  c #1F1F10",
"O  c #262600",
"+  c #2B2B02",
"@  c #22220C",
"#  c #2B2B0C",
"$  c #333300",
"%  c #3B3B01",
"&  c #35350F",
"*  c #222210",
"=  c #292917",
"-  c #21211C",
";  c #272726",
":  c #2D2D26",
">  c #2C2C2C",
",  c #363626",
"<  c #393922",
"1  c #3F3F2F",
"2  c #3B3B34",
"3  c #3A3A3B",
"4  c #424202",
"5  c #4B4B00",
"6  c #555500",
"7  c #5B5B01",
"8  c #585808",
"9  c #5C5C15",
"0  c #636300",
"q  c #616108",
"w  c #757500",
"e  c #7C7C00",
"r  c #717109",
"t  c #707017",
"y  c #474727",
"u  c #4C4C22",
"i  c #595922",
"p  c #454530",
"a  c #494930",
"s  c #48483D",
"d  c #6D6D29",
"f  c #727226",
"g  c #727229",
"h  c #79792A",
"j  c #626233",
"k  c #6C6C3F",
"l  c #434343",
"z  c #484844",
"x  c #5E5E4D",
"c  c #555553",
"v  c #57575B",
"b  c #717143",
"n  c #7D7D5C",
"m  c #5D5D64",
"M  c #666660",
"N  c #7B7B7D",
"B  c #808000",
"V  c #8C8C00",
"C  c #888808",
"Z  c #949404",
"A  c #9C9C00",
"S  c #818112",
"D  c #84841D",
"F  c #959514",
"G  c #A0A000",
"H  c #ADAD00",
"J  c #A4A40B",
"K  c #B4B400",
"L  c #BCBC03",
"P  c #C5C501",
"I  c #CDCD01",
"U  c #D1D100",
"Y  c #DBDB00",
"T  c #E5E500",
"R  c #ECEC00",
"E  c #F3F300",
"W  c #FFFF00",
"Q  c #808068",
"!  c #8D8D77",
"~  c #86867A",
"^  c #8F8F7C",
"/  c #7D7D81",
"(  c #818185",
")  c #838389",
"_  c #9A9A8A",
"`  c #8E8E92",
"'  c #939394",
"]  c #9C9C94",
"[  c #949498",
"{  c #9A9A9C",
"}  c #A8A89F",
"|  c #9C9CA0",
" . c #A4A4A4",
".. c #A7A7AA",
"X. c #ACACAE",
"o. c #AFAFB1",
"O. c #B3B3B2",
"+. c #BBBBBB",
"@. c #BEBEC0",
"#. c #C4C4C6",
"$. c #CBCBCC",
"%. c #D3D3D2",
"&. c #D7D7D8",
"*. c #DCDCDD",
"=. c #E4E4E4",
"-. c #EBEBEC",
";. c #F3F3F3",
":. c None",
/* pixels */
":.:.:.:.:.:.:.:.:.:.:.:.:.:.:.:.:.:.:.:.:.:.:.:.:.:.:.:.:.:.",
":.:.:.:.:.:.:.:.:.:.:.:.%.[ [ [ [ #.;.:.:.:.:.:.:.:.:.:.:.:.",
":.:.:.:.:.:.:.:.-.#.+.#.^ $ $ $ $ n #.#.#.=.:.:.:.:.:.:.:.:.",
":.:.:.:.:.:.-.=.$., @ * r E E E E V X * = O.=.-.:.:.:.:.:.:.",
":.:.:.:.:.;.{ > y P U I T W W W W R I U I i : N ;.:.:.:.:.:.",
":.:.:.:.;.' h G H E W W W W W W W W W W W L A D N -.:.:.:.:.",
":.:.:.=. .g K W W W W W W W W W W W W W W W W I t ] *.:.:.:.",
":.:.:.*.: H W W W W W W W W W W W W W W W W W W U * #.:.:.:.",
":.:.-.$.< K W W W W W W W W W W W W W W W W W W Y & +.-.:.:.",
":.:.#.p L E W W W W W W W W W W W W W W W W W W E I u X.:.:.",
":.:.+.@ Y W W W W W W W W Y 7 8 P W W W W W W W W E $ { :.:.",
":.:.@.@ Y W W W W W W W W I     H W W W W W W W W R $ | :.:.",
":.*.} 6 T W W W W W W W R J s l F T W W W W W W W E 0 ! *.:.",
":.[ % R W E T T R W W W A 2 =.-.c w W W W W W W W W E 7 ( ;.",
":.' % E W w + O 5 R W W A 3 =.-.c w W W W W W W W W W 7 / ;.",
":.' % E E 6     O T W Z b @.-.=.$.Q B E W W W W W W W 7 / ;.",
":.` $ E W 5     + T W 0 m ;.:.:.;.) % W W W W W W W W 7 / ;.",
":.o.j L E B 4 4 0 R I f ' -.:.:.:.X.j P E W W W W E P d  .;.",
":.;.+.# Y W E W E E % ' ;.:.:.:.:.;.O.+ T W W W W E $ | ;.:.",
":.:.+.@ Y W W W W E % [ :.:.:.:.:.:.O.= Y W W W W R $ | :.:.",
":.:.+.@ Y W W W T 7 _ *.:.:.:.:.:.:.=.} 9 I W W W E $ | :.:.",
":.:.&.~ e Y W W Y @ @.:.:.:.:.:.:.:.:.&.- L W W T C n $.:.:.",
":.:.:.=.> H W R J x $.:.:.:.:.:.:.:.:.*.M F Y W I X $.:.:.:.",
":.:.:.*.z J E H : =.-.:.:.:.:.:.:.:.:.:.-.l Z E L 1 $.:.:.:.",
":.:.:.-.=.x V H ; *.:.:.:.:.:.:.:.:.:.:.-.l V H a %.-.:.:.:.",
":.:.:.:.-.$.n + ; *.:.:.:.:.:.:.:.:.:.:.-.l . k #.-.:.:.:.:.",
":.:.:.:.:.;.#.( { =.:.:.:.:.:.:.:.:.:.:.-. .( O.;.:.:.:.:.:.",
":.:.:.:.:.:.:.;.;.:.:.:.:.:.:.:.:.:.:.:.:.:.;.:.:.:.:.:.:.:."
};
