/* XPM */
static char *result[] = {
/* columns rows colors chars-per-pixel */
"30 28 109 2 ",
"   c black",
".  c #080800",
"X  c #1B1B00",
"o  c #242403",
"O  c #2A2A05",
"+  c #262609",
"@  c #292909",
"#  c #303004",
"$  c #34340F",
"%  c #202015",
"&  c #26261D",
"*  c #292919",
"=  c #33331D",
"-  c #242421",
";  c #2A2A23",
":  c #34342C",
">  c #373737",
",  c #3A3A31",
"<  c #36363A",
"1  c #3B3B3B",
"2  c #444400",
"3  c #4B4B02",
"4  c #484809",
"5  c #595906",
"6  c #535312",
"7  c #646400",
"8  c #6A6A00",
"9  c #7C7C00",
"0  c #777708",
"q  c #6A6A13",
"w  c #747412",
"e  c #424236",
"r  c #4D4D35",
"t  c #45453C",
"y  c #4F4F3C",
"u  c #5B5B35",
"i  c #686827",
"p  c #737320",
"a  c #767628",
"s  c #7B7B2E",
"d  c #6A6A34",
"f  c #68683B",
"g  c #74743F",
"h  c #3E3E43",
"j  c #414145",
"k  c #505047",
"l  c #54544F",
"z  c #58584E",
"x  c #56565B",
"c  c #616147",
"v  c #6E6E40",
"b  c #6E6E5A",
"n  c #76765C",
"m  c #7C7C59",
"M  c #656565",
"N  c #73736C",
"B  c #868600",
"V  c #85850E",
"C  c #959501",
"Z  c #9D9D00",
"A  c #9A9A0B",
"S  c #8B8B11",
"D  c #939314",
"F  c #A3A300",
"G  c #ABAB05",
"H  c #A4A40C",
"J  c #A8A80A",
"K  c #B4B401",
"L  c #BBBB01",
"P  c #C5C500",
"I  c #CACA00",
"U  c #D4D400",
"Y  c #DDDD00",
"T  c #E4E400",
"R  c #ECEC00",
"E  c #F5F500",
"W  c #FFFF00",
"Q  c #828271",
"!  c #8D8D7A",
"~  c #7C7C82",
"^  c #88888A",
"/  c #939386",
"(  c #9C9C8E",
")  c #8E8E92",
"_  c #909092",
"`  c #9B9B90",
"'  c #97979A",
"]  c #9B9B9D",
"[  c #9F9FA1",
"{  c #A1A1A3",
"}  c #ADADA4",
"|  c #A7A7AA",
" . c #ABABAD",
".. c #AFAFB1",
"X. c #B2B2B4",
"o. c #B5B5B8",
"O. c #BBBBBC",
"+. c #C3C3C5",
"@. c #C8C8C6",
"#. c #CBCBCC",
"$. c #D1D1CF",
"%. c #D3D3D4",
"&. c #D7D7D8",
"*. c #DADADB",
"=. c #DFDFE0",
"-. c #E4E4E4",
";. c #ECECEC",
":. c #F5F5F5",
">. c None",
/* pixels */
">.>.>.>.>.>.>.>.>.>.>.>.>.>.>.>.>.>.>.>.>.>.>.>.>.>.>.>.>.>.",
">.>.>.>.>.>.@.[ o.;.>.>.>.>.>.>.>.>.>.>.-. .{ &.>.>.>.>.>.>.",
">.>.>.>.;.*.n X 1 -.>.>.>.>.>.>.>.>.>.>.&.- o ! -.>.>.>.>.>.",
">.>.>.;.-.l C C 1 -.>.>.>.>.>.>.>.>.>.>.%.* G 0 N ;.>.>.>.>.",
">.>.>.*.l H R Z > ;.>.>.>.>.>.>.>.>.>.;.*.& L T S M -.>.>.>.",
">.>.>.*.& L W Y D N *.>.>.>.>.>.>.>.>.%.b A R W C < ;.>.>.>.",
">.>.*./ w U W W I % #.>.>.>.>.>.>.>.>.X.o T W W P p ' -.>.>.",
">.>.X.+ T W W W U 6 } -.>.>.>.>.>.>.*.( 5 T W W W P & #.>.>.",
">.>.X.@ T W W W W Y $  .>.>.>.>.>.>._ 4 R W W W W P & #.>.>.",
">.:.o.O Y W W W W R #  .:.>.>.>.>.:.^ 4 E W W W W I * %.;.>.",
">.O.d L E W W W W E L d | >.>.>.;._ a I T 7 3 3 C R G c @.>.",
">.] $ W W W W W W W W 2 ~ :.>.>.:.x 8 W Y X .   7 W T O  .>.",
">.[ 2 E W W W W W W W B m @.-.;.O.v Z W T X     7 W T O  .>.",
">.] 2 E W W W W W W W W 9 x ;.=.1 Z W W T 2 o O B W R O  .>.",
">.{ 4 R W W W W W W W W B l ;.-., F W W W T T T E W Y $ ..>.",
">.-.` 5 T W W W W W W W T D 1 t J R W W W W W W W U 6 } -.>.",
">.>.o.+ Y W W W W W W W W G   . I W W W W W W W W P & %.>.>.",
">.>.X.+ T W W W W W W W W I 7 8 Y W W W W W W W W I % #.>.>.",
">.>.+.r L E W W W W W W W W W W W W W W W W W W R J k &.>.>.",
">.>.;.$.: L W W W W W W W W W W W W W W W W W W Z t *.;.>.>.",
">.>.>.&.* L W W W W W W W W W W W W W W W W W W C 1 -.>.>.>.",
">.>.>.-. .i K W W W W W W W W W W W W W W W W Z g O.;.>.>.>.",
">.>.>.>.:.' s B F W W W W W W W W W W W E C B g  .:.>.>.>.>.",
">.>.>.>.>.:.' j u K L L Y W W W W U L L G y j X.:.>.>.>.>.>.",
">.>.>.>.>.>.;.;.@.: & & V T T T T q - & t *.;.;.>.>.>.>.>.>.",
">.>.>.>.>.>.>.>.;.&.$.*.Q o + + + ` &.%.&.;.>.>.>.>.>.>.>.>.",
">.>.>.>.>.>.>.>.>.>.>.>.&.....X.X.*.>.>.>.>.>.>.>.>.>.>.>.>.",
">.>.>.>.>.>.>.>.>.>.>.>.>.>.>.>.>.>.>.>.>.>.>.>.>.>.>.>.>.>."
};
