/* XPM */
static char *result[] = {
/* columns rows colors chars-per-pixel */
"30 33 109 2 ",
"   c #010100",
".  c #0D0D00",
"X  c #171702",
"o  c #1C1C01",
"O  c #15150D",
"+  c #1C1C0C",
"@  c #191910",
"#  c #1D1D1C",
"$  c #222201",
"%  c #292900",
"&  c #2E2E0F",
"*  c #353501",
"=  c #3D3D00",
"-  c #3A3A0D",
";  c #2F2F16",
":  c #20201F",
">  c #3F3F1D",
",  c #232324",
"<  c #2A2A21",
"1  c #2A2A28",
"2  c #2C2C33",
"3  c #363637",
"4  c #3C3C3F",
"5  c #444400",
"6  c #545400",
"7  c #5D5D0A",
"8  c #444410",
"9  c #454518",
"0  c #555513",
"q  c #5E5E17",
"w  c #626200",
"e  c #6D6D00",
"r  c #707000",
"t  c #7F7F00",
"y  c #73730E",
"u  c #606014",
"i  c #63631A",
"p  c #6E6E1E",
"a  c #4A4A23",
"s  c #525234",
"d  c #65652F",
"f  c #686829",
"g  c #757524",
"h  c #606038",
"j  c #6B6B3C",
"k  c #747434",
"l  c #787838",
"z  c #3A3A41",
"x  c #444447",
"c  c #585844",
"v  c #515157",
"b  c #55555B",
"n  c #606046",
"m  c #686843",
"M  c #747442",
"N  c #6A6A54",
"B  c #616166",
"V  c #656569",
"C  c #797967",
"Z  c #77777B",
"A  c #79797C",
"S  c #848400",
"D  c #898900",
"F  c #808008",
"G  c #969602",
"H  c #9A9A00",
"J  c #A3A300",
"K  c #ACAC00",
"L  c #A6A609",
"P  c #B4B401",
"I  c #BDBD00",
"U  c #C2C200",
"Y  c #CBCB01",
"T  c #D6D601",
"R  c #DDDD00",
"E  c #E3E300",
"W  c #EBEB00",
"Q  c #F4F400",
"!  c #FFFF00",
"~  c #87877C",
"^  c #8A8A8B",
"/  c #959587",
"(  c #989886",
")  c #969689",
"_  c #8E8E91",
"`  c #949494",
"'  c #9C9C94",
"]  c #9C9C9B",
"[  c #A5A59C",
"{  c #9E9EA0",
"}  c #A3A3A4",
"|  c #ADADA7",
" . c #ABABAC",
".. c #B3B3AB",
"X. c #B5B5B5",
"o. c #B9B9B2",
"O. c #BCBCBD",
"+. c #C3C3BF",
"@. c #C2C2C3",
"#. c #CECECD",
"$. c #D5D5D5",
"%. c #DBDBDB",
"&. c #DFDFE0",
"*. c #E4E4E5",
"=. c #EBEBEB",
"-. c #EFEFF0",
";. c #F3F3F3",
":. c #FAFAFA",
">. c None",
/* pixels */
">.>.>.>.>.>.>.>.>.>.>.>.>.>.>.>.>.>.>.>.>.>.>.>.>.>.>.>.>.>.",
">.>.>.>.>.>.>.>.>.>.=. .} } } } %.>.>.>.>.>.>.>.>.>.>.>.>.>.",
">.>.>.>.>.>.=.%.$.%.@.; X o $ o [ &.%.%.=.>.>.>.>.>.>.>.>.>.",
">.>.>.>.;.;.%.3 , , > Y R R R R q , , 1 X.:.;.>.>.>.>.>.>.>.",
">.>.>.:.` B N G H G K ! ! ! ! ! P G H G M B Z =.>.>.>.>.>.>.",
">.>.=.X.d 5 w Q ! ! Q I P P U ! ! ! ! ! S 5 0 } *.>.>.>.>.>.",
">.=.@.; P ! ! ! ! ! R X   . 5 E ! ! ! ! ! ! R * ] =.>.>.>.>.",
";.} a Y Q ! ! ! ! ! T X     % E ! ! ! ! ! ! ! T i A ;.>.>.>.",
";.^ . e r K ! ! ! ! T X     % E ! ! ! ! ! ! ! ! 6 b :.>.>.>.",
";. .4 z z g U U W ! E 6 = 5 7 W ! ! ! ! ! ! ! ! t m @.=.>.>.",
">.=.=.=.;.` O + P Q Q Q Q Q Q ! ! ! ! ! ! ! ! ! ! J 1 $.>.>.",
">.>.>.>.>.&.@.@.s * 6 Q ! ! ! ! ! ! ! ! ! ! ! ! ! J : $.>.>.",
">.>.>.>.>.>.>.;.} A C F S P ! ! ! ! ! ! ! ! ! ! ! J # %.>.>.",
">.>.>.>.>.>.>.>.;.:.&.x 2 p Y Y W ! ! ! ! ! ! ! ! P 9 o.*.>.",
">.>.>.>.>.>.>.>.>.>.=.*.=.' O o K ! ! ! ! ! ! ! ! ! T ; } >.",
">.>.>.>.>.>.>.>.>.>.>.>.>.%.X.X.j 5 7 W ! ! ! ! ! ! E $ { >.",
">.>.>.>.>.>.>.>.>.>.>.>.>.>.=.:.v   o E ! ! ! ! ! ! R $ ] >.",
">.>.>.>.>.>.>.>.>.>.>.>.>.*.$.$.c % 5 W ! ! ! ! ! ! E $ { >.",
">.>.>.>.>.>.>.>.>.>.=.=.:.} # # L E W ! ! ! ! ! ! ! R $ } >.",
">.>.>.>.>.>.>.>.>.;.*.B v k K K E ! ! ! ! ! ! ! ! U u [ %.>.",
">.>.>.>.>.>.>.=.O.} ( 7 6 H ! ! ! ! ! ! ! ! ! ! ! J # %.>.>.",
">.>.>.>.>.=.%.%.c X 5 W ! ! ! ! ! ! ! ! ! ! ! ! ! J : $.>.>.",
">.=.;.;.:.} : 1 L R E ! ! ! ! ! ! ! ! ! ! ! ! ! ! J , $.>.>.",
"=.O.V V B l G H E ! ! ! ! ! ! ! ! ! ! ! ! ! ! ! H k } =.>.>.",
";.^   5 5 H ! ! ! ! ! ! ! ! ! ! ! ! ! ! ! ! ! ! 6 b :.>.>.>.",
";.` - R Q ! ! ! ! ! ! ! ! ! ! ! ! ! ! ! ! ! ! W 7 V ;.>.>.>.",
">.=...- U ! ! ! ! ! ! ! ! ! ! ! ! ! ! ! ! ! E 5 / *.=.>.>.>.",
">.>.*.` g r D Q ! ! ! ! ! ! ! ! ! ! ! ! J e y ~ $.>.>.>.>.>.",
">.>.>.:.A 4 s P U I Y ! ! ! ! ! T I I I f z b *.>.>.>.>.>.>.",
">.>.>.>.=.-.#.< O O - R Q Q Q W 7 O O @ | ;.=.=.>.>.>.>.>.>.",
">.>.>.>.>.>.=.@.@.@.| 8 * * * = ( @.@.@.*.>.>.>.>.>.>.>.>.>.",
">.>.>.>.>.>.>.>.>.>.*.] _ _ _ _ %.>.>.>.>.>.>.>.>.>.>.>.>.>.",
">.>.>.>.>.>.>.>.>.>.>.;.;.;.;.;.>.>.>.>.>.>.>.>.>.>.>.>.>.>."
};
